HIERARCHY
ROOT SpineBase
{
  OFFSET 0.000000 0.000000 0.000000
  CHANNELS 6 Xposition Yposition Zposition Zrotation Xrotation Yrotation
  JOINT SpineMid
  {
    OFFSET 0.000000 34.552679 0.000000
    CHANNELS 3 Zrotation Xrotation Yrotation
    JOINT SpineShoulder
    {
      OFFSET -0.365775 25.556437 -0.883259
      CHANNELS 3 Zrotation Xrotation Yrotation
      JOINT Neck
      {
        OFFSET -0.246261 8.426559 -0.651728
        CHANNELS 3 Zrotation Xrotation Yrotation
        JOINT Head
        {
          OFFSET 0.626430 10.789181 2.660583
          CHANNELS 3 Zrotation Xrotation Yrotation
          End Site
          {
            OFFSET 0 0 0
          }
        }
      }
      JOINT ShoulderLeft
      {
        OFFSET -16.770900 -7.712418 -0.915680
        CHANNELS 3 Zrotation Xrotation Yrotation
        JOINT ElbowLeft
        {
          OFFSET -4.662159 -24.485536 7.695432
          CHANNELS 3 Zrotation Xrotation Yrotation
          JOINT WristLeft
          {
            OFFSET 4.842543 -18.274320 7.546447
            CHANNELS 3 Zrotation Xrotation Yrotation
            JOINT HandLeft
            {
              OFFSET 1.203747 -4.544298 5.730415
              CHANNELS 3 Zrotation Xrotation Yrotation
              JOINT HandTipLeft
              {
                OFFSET -0.197485 -0.122575 -1.008359
                CHANNELS 3 Zrotation Xrotation Yrotation
                End Site
                {
                  OFFSET 0 0 0
                }
              }
              JOINT ThumbLeft
              {
                OFFSET -0.416147 0.579105 -2.158515
                CHANNELS 3 Zrotation Xrotation Yrotation
                End Site
                {
                  OFFSET 0 0 0
                }
              }
            }
          }
        }
      }
      JOINT ShoulderRight
      {
        OFFSET 15.029918 -6.858618 -9.133509
        CHANNELS 3 Zrotation Xrotation Yrotation
        JOINT ElbowRight
        {
          OFFSET 8.497008 -23.022039 2.260582
          CHANNELS 3 Zrotation Xrotation Yrotation
          JOINT WristRight
          {
            OFFSET -2.381230 20.365375 -7.805728
            CHANNELS 3 Zrotation Xrotation Yrotation
            JOINT HandRight
            {
              OFFSET -2.742662 4.565527 4.033820
              CHANNELS 3 Zrotation Xrotation Yrotation
              JOINT HandTipRight
              {
                OFFSET -1.372596 3.988029 0.459622
                CHANNELS 3 Zrotation Xrotation Yrotation
                End Site
                {
                  OFFSET 0 0 0
                }
              }
              JOINT ThumbRight
              {
                OFFSET 0.549409 1.055967 -1.146075
                CHANNELS 3 Zrotation Xrotation Yrotation
                End Site
                {
                  OFFSET 0 0 0
                }
              }
            }
          }
        }
      }
    }
  }
  JOINT HipLeft
  {
    OFFSET -7.483799 0.856783 -1.909387
    CHANNELS 3 Zrotation Xrotation Yrotation
    JOINT KneeLeft
    {
      OFFSET -1.431693 -33.805954 4.331069
      CHANNELS 3 Zrotation Xrotation Yrotation
      JOINT AnkleLeft
      {
        OFFSET -0.763530 -30.012763 1.622275
        CHANNELS 3 Zrotation Xrotation Yrotation
        JOINT FootLeft
        {
          OFFSET -3.115406 -2.651816 -12.614865
          CHANNELS 3 Zrotation Xrotation Yrotation
          End Site
          {
            OFFSET 0 0 0
          }
        }
      }
    }
  }
  JOINT HipRight
  {
    OFFSET 5.225120 1.517803 -5.532180
    CHANNELS 3 Zrotation Xrotation Yrotation
    JOINT KneeRight
    {
      OFFSET 3.562987 -30.867530 -1.814103
      CHANNELS 3 Zrotation Xrotation Yrotation
      JOINT AnkleRight
      {
        OFFSET 0.209425 -34.366444 -4.547822
        CHANNELS 3 Zrotation Xrotation Yrotation
        JOINT FootRight
        {
          OFFSET -3.381572 -2.591965 -12.499731
          CHANNELS 3 Zrotation Xrotation Yrotation
          End Site
          {
            OFFSET 0 0 0
          }
        }
      }
    }
  }
}
MOTION
Frames: 16
Frame Time: 0.033333
80.089342 72.408994 265.192967 -0.000000 0.000000 15.910683 0.000000 0.000000 -15.910683 -0.000000 0.000000 0.000000 -0.000000 0.000000 0.000000 0.000000 0.000000 0.000000 -0.000000 0.000000 0.000000 -0.000000 0.000000 0.000000 -0.000000 0.000000 0.000000 -0.000000 0.000000 0.000000 0.000000 0.000000 0.000000 0.000000 0.000000 0.000000 -0.000000 0.000000 0.000000 -0.000000 0.000000 0.000000 -0.000000 0.000000 0.000000 -0.000000 0.000000 0.000000 0.000000 0.000000 0.000000 0.000000 0.000000 0.000000 0.000000 0.000000 -15.910683 -0.000000 0.000000 0.000000 -0.000000 0.000000 0.000000 0.000000 0.000000 0.000000 0.000000 0.000000 -15.910683 -0.000000 0.000000 0.000000 -0.000000 0.000000 0.000000 0.000000 0.000000 0.000000
80.071618 72.409299 265.156761 -0.074814 0.044732 16.072474 0.059506 -0.063696 -16.072412 -0.000000 0.000000 0.000000 -2.717934 2.205815 0.590983 0.000000 0.000000 0.000000 -0.000000 0.000000 0.000000 -0.000000 0.000000 0.000000 -0.000000 0.000000 0.000000 -0.000000 0.000000 0.000000 0.000000 0.000000 0.000000 0.000000 0.000000 0.000000 -0.925943 -0.200129 -0.166872 0.799224 -0.925155 -0.017947 -0.895849 -1.082379 -0.246709 -0.621232 -0.929420 -0.469093 0.000000 0.000000 0.000000 0.000000 0.000000 0.000000 0.059506 -0.063696 -16.072412 -0.000000 0.000000 0.000000 -0.000000 0.000000 0.000000 0.000000 0.000000 0.000000 0.059506 -0.063696 -16.072412 -0.000000 0.000000 0.000000 -0.000000 0.000000 0.000000 0.000000 0.000000 0.000000
80.046116 72.413007 265.120171 -0.153885 0.089931 16.269657 0.122528 -0.129441 -16.269398 -0.000000 0.000000 0.000000 -5.081094 4.092465 1.184225 0.000000 0.000000 0.000000 -1.077002 -0.239842 -0.294361 1.075765 0.245329 0.289804 -0.000000 0.000000 0.000000 -0.000000 0.000000 0.000000 0.000000 0.000000 0.000000 0.000000 0.000000 0.000000 -1.737158 -0.315690 -0.293452 1.407275 -1.735292 -0.088265 -1.545677 -1.893304 -0.356663 -0.908017 -1.626583 -0.897091 0.000000 0.000000 0.000000 0.000000 0.000000 0.000000 0.122528 -0.129441 -16.269398 -0.000000 0.000000 0.000000 -0.000000 0.000000 0.000000 0.000000 0.000000 0.000000 0.122528 -0.129441 -16.269398 -0.000000 0.000000 0.000000 -0.000000 0.000000 0.000000 0.000000 0.000000 0.000000
80.012838 72.420116 265.083197 -0.237229 0.135611 16.502277 0.188938 -0.197410 -16.501670 -0.000000 0.000000 0.000000 -7.067826 5.656374 1.738494 0.000000 0.000000 0.000000 -1.497489 -0.386408 -0.400717 1.494786 0.396738 0.390492 -0.000000 0.000000 0.000000 -0.000000 0.000000 0.000000 0.000000 0.000000 0.000000 0.000000 0.000000 0.000000 -2.444990 -0.352403 -0.380582 1.833890 -2.425972 -0.207252 -1.950931 -2.454117 -0.334351 -0.928750 -2.208043 -1.320721 0.000000 0.000000 0.000000 0.000000 0.000000 0.000000 0.188938 -0.197410 -16.501670 -0.000000 0.000000 0.000000 -0.000000 0.000000 0.000000 0.000000 0.000000 0.000000 0.188938 -0.197410 -16.501670 -0.000000 0.000000 0.000000 -0.000000 0.000000 0.000000 0.000000 0.000000 0.000000
79.971784 72.430627 265.045841 -0.324869 0.181788 16.770420 0.258602 -0.267790 -16.769300 -0.900363 0.346875 -0.056801 -7.765359 6.552011 2.229528 0.000000 0.000000 0.000000 -0.944390 -0.899274 -0.430671 1.840959 0.566720 0.463760 -0.000000 0.000000 0.000000 -0.000000 0.000000 0.000000 0.000000 0.000000 0.000000 0.000000 0.000000 0.000000 -2.157864 -0.662960 -0.385179 2.087516 -2.994122 -0.372348 -2.116216 -2.782605 -0.183496 -0.724334 -2.754206 -1.765348 0.000000 0.000000 0.000000 0.000000 0.000000 0.000000 0.258602 -0.267790 -16.769300 -0.000000 0.000000 0.000000 -0.000000 0.000000 0.000000 0.000000 0.000000 0.000000 0.258602 -0.267790 -16.769300 -0.000000 0.000000 0.000000 -0.000000 0.000000 0.000000 0.000000 0.000000 0.000000
79.922952 72.444540 265.008100 -0.416826 0.228475 17.074214 0.331378 -0.340784 -17.072397 -1.059129 0.406278 -0.066325 -8.805568 7.432058 2.606281 0.000000 0.000000 0.000000 -1.064516 -1.143237 -0.479666 2.118019 0.755223 0.510829 -0.000000 0.000000 0.000000 -0.000000 0.000000 0.000000 0.000000 0.000000 0.000000 0.000000 0.000000 0.000000 -2.526406 -0.612188 -0.390313 2.175482 -3.437760 -0.581867 -2.047710 -2.891082 0.093797 -0.311523 -3.319310 -2.245985 0.000000 0.000000 0.000000 0.000000 0.000000 0.000000 0.331378 -0.340784 -17.072397 -0.000000 0.000000 0.000000 -0.192411 0.024591 0.883801 0.000000 0.000000 0.000000 0.331378 -0.340784 -17.072397 0.867488 -0.198604 -0.114527 -1.057467 0.213991 1.006799 0.000000 0.000000 0.000000
79.870482 72.465501 264.963055 -0.539238 0.278204 17.501202 -0.328638 0.136825 -17.526674 -0.353753 0.146625 -0.056091 -9.640233 8.224509 2.945747 0.000000 0.000000 0.000000 -1.191392 -1.470078 -0.523302 1.673959 1.248724 0.309692 0.755284 -0.216536 0.255303 -0.000000 0.000000 0.000000 0.000000 0.000000 0.000000 0.000000 0.000000 0.000000 -3.047244 -0.447451 -0.368817 2.198962 -3.967777 -0.914281 -2.052122 -2.587471 1.055660 0.994410 -3.971688 -3.294780 0.000000 0.000000 0.000000 0.000000 0.000000 0.000000 0.430626 -0.427477 -17.498286 -0.000000 0.000000 0.000000 -0.243917 -0.001734 1.159510 0.000000 0.000000 0.000000 -0.394533 -0.682929 -17.521328 1.604802 0.238579 -0.113689 -1.141140 0.267403 1.283124 0.000000 0.000000 0.000000
79.809636 72.489294 264.923393 -0.663849 0.316557 17.907923 -0.330406 0.123102 -17.936989 -0.359803 0.138928 -0.061705 -9.437424 8.376723 2.934886 0.000000 0.000000 0.000000 -1.271264 -1.770695 -0.534309 1.819114 1.637545 0.319791 0.815165 -0.317456 0.253996 -0.000000 0.000000 0.000000 0.000000 0.000000 0.000000 0.000000 0.000000 0.000000 -3.447287 -0.202515 -0.308868 2.031317 -4.285582 -1.256051 -1.765473 -2.218444 1.917410 3.029375 -5.703354 -4.642509 0.000000 0.000000 0.000000 0.000000 0.000000 0.000000 0.534370 -0.505326 -17.903733 0.520060 0.876504 0.001835 -0.815117 -0.917635 1.435041 0.000000 0.000000 0.000000 -0.308228 -0.877601 -17.944337 1.590553 0.283378 -0.101932 -1.207526 0.338117 1.570020 0.000000 0.000000 0.000000
79.734673 72.514762 264.885416 -0.785329 0.359555 18.323070 -0.320066 0.094849 -18.355148 -0.350344 0.131533 -0.065351 -8.695594 8.037834 2.731802 0.000000 0.000000 0.000000 -1.186656 -2.031849 -0.488243 1.789165 2.016956 0.293498 0.852602 -0.446982 0.236124 -0.000000 0.000000 0.000000 0.000000 0.000000 0.000000 0.000000 0.000000 0.000000 -3.610327 0.086337 -0.204099 1.667693 -4.350866 -1.571408 -1.001865 -1.884596 2.320659 3.790231 -6.680259 -5.077673 0.000000 0.000000 0.000000 0.000000 0.000000 0.000000 0.632511 -0.588181 -18.317359 0.476320 0.798235 0.002122 -0.827869 -0.848057 1.713849 0.000000 0.000000 0.000000 -0.159637 -1.045811 -18.371849 1.492565 0.248563 -0.087423 -1.245229 0.436704 1.847962 0.000000 0.000000 0.000000
79.653129 72.533260 264.860058 -0.841481 0.400945 18.675997 -0.269645 0.074698 -18.707200 -0.307947 0.126502 -0.061833 -8.318160 7.618477 2.586675 0.000000 0.000000 0.000000 -1.109581 -2.212391 -0.429233 1.666713 2.376251 0.285638 0.857069 -0.660700 0.182998 0.254937 -0.730505 -0.973159 0.000000 0.000000 0.000000 0.000000 0.000000 0.000000 -3.624424 0.343754 -0.086722 1.129211 -4.087422 -1.823374 -0.384637 -1.209843 3.098233 4.094893 -7.972775 -5.736455 0.000000 0.000000 0.000000 0.000000 0.000000 0.000000 0.668828 -0.649248 -18.669263 0.661274 0.990345 0.004837 -1.059826 -1.073122 1.967281 0.000000 0.000000 0.000000 -0.040830 -1.140938 -18.730132 1.378852 0.152749 -0.077449 -1.276294 0.533410 2.105197 0.000000 0.000000 0.000000
79.561918 72.548875 264.840132 -0.822067 0.454893 18.996730 -0.208587 0.066411 -19.023796 -0.254671 0.122357 -0.053605 -7.851231 6.978614 2.374581 0.000000 0.000000 0.000000 -0.959917 -2.350907 -0.335435 1.381540 2.655791 0.241125 0.861318 -0.867217 0.131726 0.423336 -1.232947 -1.646989 0.000000 0.000000 0.000000 0.000000 0.000000 0.000000 -3.415120 0.534359 0.035360 0.412794 -3.409247 -1.981185 0.771838 -1.514454 2.741219 4.910555 -6.871040 -4.839614 0.000000 0.000000 0.000000 0.000000 0.000000 0.000000 0.629271 -0.697672 -18.989635 0.692243 0.804968 0.012083 -1.142964 -0.880462 2.199779 0.000000 0.000000 0.000000 0.629271 -0.697672 -18.989635 0.850517 -0.639227 -0.111782 -1.310296 0.621015 2.347148 0.000000 0.000000 0.000000
79.457188 72.575103 264.826333 -0.711459 0.534657 19.365793 -0.135107 0.059314 -19.384888 -0.192866 0.113971 -0.040084 -7.424897 6.071421 2.132477 0.000000 0.000000 0.000000 -0.869990 -2.438701 -0.247447 1.032237 2.709062 0.150428 0.880272 -0.924140 0.125052 0.611573 -1.788777 -2.478710 0.000000 0.000000 0.000000 0.000000 0.000000 0.000000 -2.942557 0.655104 0.163736 0.212434 -3.969154 -1.971209 0.896200 -0.060968 2.650633 2.199159 -8.358304 -4.837229 0.000000 0.000000 0.000000 0.000000 0.000000 0.000000 0.493960 -0.740293 -19.359283 0.838052 0.977524 0.013290 -1.346511 -1.072061 2.487978 0.000000 0.000000 0.000000 0.493960 -0.740293 -19.359283 0.827197 -0.716920 -0.108746 -1.344194 0.681538 2.642751 0.000000 0.000000 0.000000
79.354553 72.601759 264.826661 -0.519407 0.619713 19.690018 -0.069001 0.056215 -19.699053 -0.132379 0.101180 -0.023527 -6.835188 5.158038 1.828227 0.000000 0.000000 0.000000 -0.781925 -2.574371 -0.133162 0.615307 2.778690 0.022808 0.898457 -0.951855 0.125561 0.735966 -2.155151 -3.075026 0.000000 0.000000 0.000000 0.000000 0.000000 0.000000 -2.821282 0.629844 0.198991 -0.167425 -4.142705 -2.034756 0.947662 -0.343732 2.288633 -0.398671 -6.439258 -3.761076 0.000000 0.000000 0.000000 0.000000 0.000000 0.000000 0.280268 -0.758467 -19.685354 0.990891 1.150922 0.014339 -1.554661 -1.267868 2.767764 0.000000 0.000000 0.000000 0.280268 -0.758467 -19.685354 0.805514 -0.769407 -0.105968 -1.376881 0.711880 2.931840 0.000000 0.000000 0.000000
79.258014 72.629293 264.839329 -0.255540 0.695774 19.937068 0.002982 -0.741209 -19.935497 -0.384582 0.832924 -0.002609 -6.280794 4.362386 1.535919 0.000000 0.000000 0.000000 -0.792974 -2.707084 -0.041058 0.294967 2.773990 -0.096658 0.882983 -0.897705 0.132965 0.768504 -2.227493 -3.276707 0.000000 0.000000 0.000000 0.000000 0.000000 0.000000 -2.849067 0.475480 0.165399 -0.487153 -4.140124 -2.049051 0.647323 -0.990201 2.134476 -2.352957 -5.318669 -3.225835 0.000000 0.000000 0.000000 0.000000 0.000000 0.000000 0.002982 -0.741209 -19.935497 1.140249 1.326462 0.014702 -1.751921 -1.468983 3.016310 0.000000 0.000000 0.000000 0.002982 -0.741209 -19.935497 0.796692 -0.781847 -0.104849 -1.414812 0.698164 3.191563 0.000000 0.000000 0.000000
79.167703 72.657504 264.860697 0.043776 0.778098 20.071222 0.025058 0.073743 -20.057871 -0.051948 0.071990 0.012277 -5.589851 4.071254 1.203741 0.000000 0.000000 0.000000 -0.767257 -2.763241 0.053951 -0.053038 2.627711 -0.219984 0.834553 -0.789925 0.140393 0.707591 -1.995044 -3.062668 0.000000 0.000000 0.000000 0.000000 0.000000 0.000000 -2.852096 0.288239 0.126590 -0.802769 -4.200663 -2.049126 -0.055010 0.400722 3.526472 -0.904396 -8.361088 -5.473793 0.000000 0.000000 0.000000 0.000000 0.000000 0.000000 -0.308169 -0.715814 -20.073445 1.277465 1.500248 0.014172 -1.918880 -1.660480 3.169632 0.000000 0.000000 0.000000 -0.308169 -0.715814 -20.073445 0.800268 -0.769368 -0.105308 -1.447303 0.667330 3.356299 0.000000 0.000000 0.000000
79.082248 72.686419 264.885974 0.384535 0.872538 20.138492 0.071329 0.076719 -20.112914 -0.037651 0.057504 0.030918 -5.130915 4.287297 0.921975 0.000000 0.000000 0.000000 -0.757536 -2.768548 0.139729 -0.368457 2.424926 -0.321428 0.745398 -0.679173 0.131710 0.553359 -1.473406 -2.448907 0.000000 0.000000 0.000000 0.000000 0.000000 0.000000 -2.743679 0.180977 0.134019 -1.203792 -4.411447 -2.084727 -0.315669 1.251707 4.048307 0.823973 -10.648660 -6.709365 0.000000 0.000000 0.000000 0.000000 0.000000 0.000000 -0.661473 -0.686770 -20.145384 1.395266 1.648551 0.013419 -2.053933 -1.821496 3.258681 0.000000 0.000000 0.000000 -0.661473 -0.686770 -20.145384 0.815006 -0.753468 -0.107175 -1.478820 0.638807 3.456244 0.000000 0.000000 0.000000
